<svg xmlns="http://www.w3.org/2000/svg" viewBox="0 0 100 100" width="100" height="100">
	<defs>
		<linearGradient id="grd1" gradientUnits="userSpaceOnUse"  x1="3.796" y1="50.436" x2="95.752" y2="50.436">
			<stop offset="0" stop-color="#ef32d9"  />
			<stop offset="1" stop-color="#89fffd"  />
		</linearGradient>
		<linearGradient id="grd2" gradientUnits="userSpaceOnUse"  x1="20.289" y1="49.708" x2="79.26" y2="49.708">
			<stop offset="0" stop-color="#ef32d9"  />
			<stop offset="1" stop-color="#89fffd"  />
		</linearGradient>
	</defs>
	<style>
		tspan { white-space:pre }
		.shp0 { fill: url(#grd1) } 
		.shp1 { fill: url(#grd2) } 
	</style>
	<g id="Layer">
		<path id="Layer" class="shp0" d="M95.75,50.44c0,25.35 -20.63,45.98 -45.98,45.98c-25.35,0 -45.98,-20.63 -45.98,-45.98c0,-25.35 20.62,-45.98 45.98,-45.98c25.35,0 45.98,20.62 45.98,45.98zM93.75,50.44c0,-24.25 -19.73,-43.98 -43.98,-43.98c-24.25,0 -43.98,19.73 -43.98,43.98c0,24.25 19.73,43.98 43.98,43.98c24.25,0 43.98,-19.73 43.98,-43.98z" />
		<path id="Layer" class="shp1" d="M79.26,50.44c0,12.57 -7.98,23.77 -19.85,27.87c-0.06,0.02 -0.23,0.07 -0.27,0.08c-0.2,0.05 -0.42,0.08 -0.63,0.08c-1.48,0 -2.68,-1.2 -2.68,-2.67v-7.47c0,-0.75 0,-3.04 -1.23,-4.33c-0.26,-0.27 -0.34,-0.66 -0.23,-1.01c0.12,-0.35 0.42,-0.61 0.78,-0.67c7.89,-1.3 11.89,-5.5 11.89,-12.46c0,-3.27 -0.9,-5.96 -2.67,-7.99c-0.2,-0.23 -0.28,-0.53 -0.23,-0.83c0.52,-2.95 0.45,-5.34 -0.17,-6.24c-0.44,-0.07 -2.38,-0.15 -6.5,2.75c-0.23,0.16 -0.53,0.22 -0.8,0.16c-2.01,-0.46 -4.29,-0.7 -6.78,-0.72c-0.02,0 -0.05,0 -0.07,0l-0.06,0l0,-0.01c-0.04,0.01 -0.09,0.01 -0.13,0.01c-2.49,0.02 -4.77,0.26 -6.78,0.72c-0.28,0.07 -0.57,0.01 -0.8,-0.16c-4.1,-2.89 -6.02,-2.84 -6.5,-2.74c-0.62,0.9 -0.69,3.29 -0.17,6.24c0.05,0.3 -0.03,0.6 -0.23,0.83c-1.77,2.03 -2.67,4.72 -2.67,7.99c0,6.96 4,11.15 11.89,12.46c0.37,0.06 0.67,0.32 0.78,0.67c0.12,0.35 0.03,0.74 -0.23,1.01c-0.62,0.64 -1,1.63 -1.16,2.92c-0.05,0.39 -0.31,0.71 -0.69,0.83c-0.92,0.3 -2.09,0.52 -3.49,0.67c-3.13,0.32 -4.92,-2.18 -6.21,-3.97c-0.33,-0.46 -0.65,-0.9 -0.95,-1.24c-0.39,-0.45 -0.92,-0.63 -1.36,-0.7c0.9,0.68 1.98,1.73 2.63,3.35c0.88,2.2 1.7,3.16 3.36,3.96c0.3,0.15 0.89,0.32 1.98,0.32c1.23,0 2.55,-0.22 3.43,-0.4c0.3,-0.06 0.6,0.02 0.83,0.2c0.23,0.19 0.37,0.48 0.37,0.78v4.95c0,0.02 0,0.04 0,0.06c0,0.02 0,0.05 0,0.08c0,1.47 -1.2,2.67 -2.68,2.67c-0.28,0 -0.56,-0.04 -0.83,-0.13l-0.32,-0.11c-11.73,-4.17 -19.61,-15.34 -19.61,-27.79c0,-16.26 13.23,-29.49 29.48,-29.49c16.26,0 29.49,13.23 29.49,29.49zM77.26,50.44c0,-15.16 -12.33,-27.49 -27.49,-27.49c-15.15,0 -27.48,12.33 -27.48,27.49c0,11.6 7.34,22.01 18.27,25.9l0.27,0.09c0.43,0.14 0.89,-0.2 0.89,-0.64c-0.01,-0.06 -0.01,-0.12 0,-0.18v-3.71c-0.81,0.13 -1.73,0.22 -2.63,0.22c-1.2,0 -2.13,-0.17 -2.85,-0.52c-2.11,-1.02 -3.29,-2.37 -4.35,-5.02c-0.67,-1.68 -1.96,-2.52 -2.82,-3.08c-0.59,-0.38 -1.05,-0.68 -1.16,-1.26c-0.07,-0.34 0.03,-0.7 0.26,-0.98c0.5,-0.61 1.59,-0.82 2.45,-0.82c1.37,0 2.56,0.51 3.36,1.42c0.36,0.41 0.7,0.89 1.06,1.39c1.19,1.65 2.4,3.35 4.38,3.15c1.11,-0.12 1.92,-0.27 2.49,-0.41c0.14,-0.75 0.35,-1.42 0.64,-2.01c-7.89,-1.77 -12.05,-6.63 -12.05,-14.14c0,-3.58 0.96,-6.58 2.85,-8.94c-0.44,-2.74 -0.59,-6.13 0.91,-7.67c0.06,-0.06 0.12,-0.11 0.19,-0.15c0.39,-0.24 2.55,-1.44 8.41,2.56c2.02,-0.43 4.27,-0.65 6.69,-0.67c0.03,0 0.06,0 0.1,0l0.14,0c0.05,0 0.1,0 0.15,0.01v-0.01c2.46,0.02 4.74,0.24 6.78,0.67c5.85,-4 8.02,-2.8 8.41,-2.56c0.07,0.04 0.13,0.09 0.19,0.15c1.5,1.54 1.35,4.93 0.91,7.67c1.89,2.35 2.85,5.36 2.85,8.94c0,7.51 -4.16,12.37 -12.05,14.14c0.83,1.69 0.83,3.59 0.83,4.33v7.47c0,0.43 0.44,0.76 0.83,0.66l0.12,-0.03c11.04,-3.82 18.47,-14.26 18.47,-25.97z" />
	</g>
</svg>